<svg width="21" height="21" viewBox="0 0 21 21" fill="none" xmlns="http://www.w3.org/2000/svg">
<g clip-path="url(#clip0_551_627)">
<path d="M16.4549 11.9407L13.6217 16.734C13.3105 17.2636 12.887 17.7126 12.3833 18.0468C11.8796 18.3811 11.3089 18.5919 10.7148 18.663C10.5583 18.6823 10.4008 18.6919 10.2431 18.6918C9.43603 18.6907 8.649 18.4309 7.98978 17.9481C7.30856 18.4773 6.46706 18.7359 5.61775 18.6772C4.76845 18.6185 3.96751 18.2463 3.36007 17.6281C2.75263 17.0099 2.37886 16.1865 2.30648 15.3072C2.23411 14.4278 2.46792 13.5507 2.96555 12.8347L1.97782 11.8122C1.55607 11.3749 1.23521 10.8443 1.03927 10.2602C0.843325 9.67607 0.777387 9.05356 0.846388 8.43928C0.915388 7.825 1.11754 7.23487 1.4377 6.71308C1.75787 6.19129 2.18775 5.75136 2.69514 5.42625L7.02684 2.64915C8.20025 1.86943 9.58017 1.49139 10.9719 1.56838C12.3636 1.64537 13.6969 2.1735 14.7836 3.07825L16.0298 1.78627C16.099 1.71189 16.1819 1.65256 16.2736 1.61175C16.3652 1.57093 16.4638 1.54945 16.5635 1.54855C16.6632 1.54765 16.7621 1.56736 16.8544 1.60651C16.9468 1.64567 17.0306 1.7035 17.1011 1.77662C17.1717 1.84974 17.2274 1.93669 17.2652 2.0324C17.303 2.12811 17.322 2.23066 17.3211 2.33406C17.3202 2.43747 17.2995 2.53966 17.2602 2.63467C17.2208 2.72968 17.1636 2.81562 17.0918 2.88745L15.8472 4.17866C16.682 5.26289 17.1857 6.58072 17.294 7.96348C17.4022 9.34625 17.1101 10.731 16.4549 11.9407ZM6.84507 16.8594L4.05166 13.9624C3.83337 14.3671 3.74918 14.835 3.812 15.2941C3.87481 15.7533 4.08118 16.1784 4.39943 16.5043C4.72048 16.8205 5.12882 17.0247 5.56734 17.0884C6.00586 17.152 6.45261 17.072 6.84507 16.8594ZM14.2969 4.71056C13.4628 3.83743 12.3649 3.28776 11.1867 3.15351C10.0085 3.01927 8.8216 3.30858 7.82453 3.97306L3.48532 6.75016C3.17063 6.95184 2.90403 7.22472 2.70548 7.54836C2.50692 7.87201 2.38157 8.23804 2.33879 8.61904C2.29602 9.00004 2.33694 9.38614 2.45849 9.74842C2.58003 10.1107 2.77906 10.4398 3.04066 10.711L8.51631 16.389C8.77833 16.661 9.09641 16.8678 9.44664 16.994C9.79687 17.1201 10.1701 17.1623 10.5383 17.1173C10.9065 17.0723 11.2601 16.9414 11.5725 16.7343C11.8849 16.5272 12.1479 16.2494 12.3418 15.9218L15.1622 11.1518C15.7131 10.1259 15.9266 8.94192 15.7705 7.77899C15.6144 6.61607 15.0971 5.53753 14.2969 4.70666V4.71056ZM15.2576 18.6918C15.099 18.6921 14.9443 18.6404 14.8158 18.5439C14.6873 18.4475 14.5916 18.3114 14.5423 18.155C14.493 17.9987 14.4927 17.8302 14.5415 17.6737C14.5902 17.5172 14.6855 17.3807 14.8137 17.2838C16.1289 16.2586 17.019 14.7533 17.3037 13.073C17.3236 12.9719 17.3628 12.8758 17.4189 12.7905C17.4749 12.7052 17.5468 12.6323 17.6303 12.576C17.7138 12.5198 17.8073 12.4813 17.9053 12.4629C18.0032 12.4444 18.1038 12.4463 18.201 12.4685C18.2983 12.4907 18.3903 12.5328 18.4718 12.5922C18.5532 12.6516 18.6224 12.7272 18.6754 12.8146C18.7284 12.902 18.7641 12.9995 18.7805 13.1013C18.7968 13.2032 18.7934 13.3074 18.7706 13.4079C18.4025 15.4573 17.307 17.2893 15.7 18.5423C15.5715 18.6395 15.4166 18.6918 15.2576 18.6918ZM1.53842 4.4707C1.39969 4.47006 1.26384 4.42959 1.14594 4.35379C1.02804 4.27799 0.932683 4.16981 0.870454 4.04126C0.808225 3.9127 0.781551 3.76879 0.79339 3.62548C0.805229 3.48216 0.855118 3.34505 0.937525 3.22934C2.16259 1.53207 3.9659 0.383177 5.97979 0.0169035C6.17501 -0.0244051 6.37807 0.0163861 6.54428 0.130303C6.7105 0.244221 6.82626 0.421933 6.86611 0.624345C6.90595 0.826757 6.8666 1.03729 6.75673 1.20963C6.64686 1.38196 6.47546 1.50199 6.28023 1.5433C4.62625 1.82647 3.14223 2.76256 2.13932 4.15529C2.06974 4.25273 1.97919 4.33198 1.87487 4.38674C1.77055 4.4415 1.65535 4.47024 1.53842 4.4707Z" fill="#0057B8" fill-opacity="0.5"/>
</g>
<defs>
<clipPath id="clip0_551_627">
<rect width="20" height="20.7674" fill="white" transform="translate(0.786865 0.0013485)"/>
</clipPath>
</defs>
</svg>
