<svg width="19" height="19" viewBox="0 0 19 19" fill="none" xmlns="http://www.w3.org/2000/svg">
<g clip-path="url(#clip0_584_1009)">
<path d="M16.6523 3.48182C16.3881 2.75647 15.9084 2.12999 15.278 1.68704C14.6476 1.24409 13.8969 1.00602 13.1273 1.005H6.8273C6.05771 1.00602 5.30698 1.24409 4.67657 1.68704C4.04616 2.12999 3.56646 2.75647 3.3023 3.48182L1.2773 9.07139C1.07814 9.6219 0.976601 10.2032 0.977298 10.7888V11.5414C0.978637 12.123 1.11487 12.6963 1.37522 13.216C1.63557 13.7356 2.01289 14.1873 2.4773 14.5353C2.4773 14.5413 2.4773 14.5458 2.4773 14.5518V16.057C2.4773 16.6558 2.71435 17.2301 3.13631 17.6535C3.55827 18.077 4.13056 18.3148 4.7273 18.3148C5.32404 18.3148 5.89633 18.077 6.31829 17.6535C6.74025 17.2301 6.9773 16.6558 6.9773 16.057V15.3044H12.9773V16.057C12.9773 16.6558 13.2144 17.2301 13.6363 17.6535C14.0583 18.077 14.6306 18.3148 15.2273 18.3148C15.824 18.3148 16.3963 18.077 16.8183 17.6535C17.2403 17.2301 17.4773 16.6558 17.4773 16.057V14.5518C17.4773 14.5458 17.4773 14.5413 17.4773 14.5353C17.9417 14.1873 18.319 13.7356 18.5794 13.216C18.8397 12.6963 18.976 12.123 18.9773 11.5414V10.7888C18.9781 10.2034 18.8765 9.62237 18.6773 9.07214L16.6523 3.48182ZM4.7138 3.9966C4.87238 3.56172 5.16 3.18608 5.53791 2.92031C5.91581 2.65453 6.36583 2.5114 6.8273 2.51021H13.1273C13.589 2.5111 14.0394 2.65408 14.4176 2.91988C14.7958 3.18567 15.0836 3.56148 15.2423 3.9966L16.8833 8.53102H3.07055L4.7138 3.9966ZM5.4773 16.057C5.4773 16.2566 5.39828 16.4481 5.25763 16.5892C5.11698 16.7303 4.92621 16.8096 4.7273 16.8096C4.52839 16.8096 4.33762 16.7303 4.19697 16.5892C4.05632 16.4481 3.9773 16.2566 3.9773 16.057V15.2292C4.22415 15.2795 4.47542 15.3047 4.7273 15.3044H5.4773V16.057ZM15.9773 16.057C15.9773 16.2566 15.8983 16.4481 15.7576 16.5892C15.617 16.7303 15.4262 16.8096 15.2273 16.8096C15.0284 16.8096 14.8376 16.7303 14.697 16.5892C14.5563 16.4481 14.4773 16.2566 14.4773 16.057V15.3044H15.2273C15.4792 15.3047 15.7305 15.2795 15.9773 15.2292V16.057ZM17.4773 11.5414C17.4773 12.1402 17.2403 12.7145 16.8183 13.1379C16.3963 13.5614 15.824 13.7992 15.2273 13.7992H4.7273C4.13056 13.7992 3.55827 13.5614 3.13631 13.1379C2.71435 12.7145 2.4773 12.1402 2.4773 11.5414V10.7888C2.48036 10.5354 2.51078 10.2831 2.56805 10.0362H3.9773V10.7888C3.9773 10.9884 4.05632 11.1799 4.19697 11.321C4.33762 11.4621 4.52839 11.5414 4.7273 11.5414C4.92621 11.5414 5.11698 11.4621 5.25763 11.321C5.39828 11.1799 5.4773 10.9884 5.4773 10.7888V10.0362H14.4773V10.7888C14.4773 10.9884 14.5563 11.1799 14.697 11.321C14.8376 11.4621 15.0284 11.5414 15.2273 11.5414C15.4262 11.5414 15.617 11.4621 15.7576 11.321C15.8983 11.1799 15.9773 10.9884 15.9773 10.7888V10.0362H17.3866C17.4439 10.2831 17.4743 10.5354 17.4773 10.7888V11.5414Z" fill="#0057B8" fill-opacity="0.5"/>
</g>
<defs>
<clipPath id="clip0_584_1009">
<rect width="18" height="18.0624" fill="white" transform="translate(0.977295 0.252411)"/>
</clipPath>
</defs>
</svg>
