<svg width="19" height="18" viewBox="0 0 19 18" fill="none" xmlns="http://www.w3.org/2000/svg">
<g clip-path="url(#clip0_537_465)">
<path d="M9.78687 8.90075C10.6769 8.90075 11.5469 8.63975 12.2869 8.15076C13.027 7.66177 13.6037 6.96675 13.9443 6.15359C14.2849 5.34043 14.374 4.44565 14.2004 3.58241C14.0268 2.71916 13.5982 1.92622 12.9688 1.30385C12.3395 0.681485 11.5377 0.257648 10.6648 0.0859378C9.79186 -0.0857726 8.88706 0.00235544 8.06479 0.339177C7.24252 0.676 6.53972 1.24639 6.04525 1.97821C5.55079 2.71004 5.28687 3.57043 5.28687 4.45059C5.28806 5.63048 5.76254 6.76171 6.6062 7.59603C7.44986 8.43034 8.59376 8.89957 9.78687 8.90075ZM9.78687 1.48382C10.3802 1.48382 10.9602 1.65781 11.4536 1.98381C11.9469 2.3098 12.3314 2.77315 12.5585 3.31525C12.7856 3.85736 12.845 4.45388 12.7292 5.02938C12.6135 5.60488 12.3277 6.1335 11.9082 6.54841C11.4886 6.96333 10.9541 7.24588 10.3721 7.36036C9.79019 7.47483 9.18699 7.41608 8.63881 7.19153C8.09064 6.96698 7.6221 6.58672 7.29246 6.09884C6.96281 5.61096 6.78687 5.03736 6.78687 4.45059C6.78687 3.66375 7.10294 2.90914 7.66554 2.35276C8.22815 1.79639 8.99122 1.48382 9.78687 1.48382Z" fill="#0057B8" fill-opacity="0.5"/>
<path d="M9.78686 10.3842C7.99726 10.3861 6.28153 11.0901 5.01609 12.3415C3.75065 13.5929 3.03885 15.2896 3.03687 17.0594C3.03687 17.2561 3.11588 17.4448 3.25654 17.5839C3.39719 17.723 3.58795 17.8011 3.78686 17.8011C3.98578 17.8011 4.17654 17.723 4.31719 17.5839C4.45785 17.4448 4.53686 17.2561 4.53686 17.0594C4.53686 15.6825 5.08999 14.3619 6.07455 13.3882C7.05912 12.4146 8.39448 11.8676 9.78686 11.8676C11.1792 11.8676 12.5146 12.4146 13.4992 13.3882C14.4837 14.3619 15.0369 15.6825 15.0369 17.0594C15.0369 17.2561 15.1159 17.4448 15.2565 17.5839C15.3972 17.723 15.5879 17.8011 15.7869 17.8011C15.9858 17.8011 16.1765 17.723 16.3172 17.5839C16.4578 17.4448 16.5369 17.2561 16.5369 17.0594C16.5349 15.2896 15.8231 13.5929 14.5576 12.3415C13.2922 11.0901 11.5765 10.3861 9.78686 10.3842Z" fill="#0057B8" fill-opacity="0.5"/>
</g>
<defs>
<clipPath id="clip0_537_465">
<rect width="18" height="17.8006" fill="white" transform="translate(0.786865 0.000473022)"/>
</clipPath>
</defs>
</svg>
