<svg width="17" height="4" viewBox="0 0 17 4" fill="none" xmlns="http://www.w3.org/2000/svg">
<path d="M0.8 1.74C0.8 2.58 1.46 3.24 2.3 3.24C3.14 3.24 3.8 2.58 3.8 1.74C3.8 0.9 3.14 0.24 2.3 0.24C1.46 0.24 0.8 0.9 0.8 1.74ZM7.3918 1.74C7.3918 2.58 8.0518 3.24 8.8918 3.24C9.7318 3.24 10.3918 2.58 10.3918 1.74C10.3918 0.9 9.7318 0.24 8.8918 0.24C8.0518 0.24 7.3918 0.9 7.3918 1.74ZM13.9836 1.74C13.9836 2.58 14.6436 3.24 15.4836 3.24C16.3236 3.24 16.9836 2.58 16.9836 1.74C16.9836 0.9 16.3236 0.24 15.4836 0.24C14.6436 0.24 13.9836 0.9 13.9836 1.74Z" fill="white" fill-opacity="0.47"/>
</svg>
