<svg width="25" height="25" viewBox="0 0 25 25" fill="none" xmlns="http://www.w3.org/2000/svg">
<path fill-rule="evenodd" clip-rule="evenodd" d="M2.77759 12.5C2.77759 7.13056 7.13038 2.77777 12.4998 2.77777C17.8692 2.77777 22.222 7.13056 22.222 12.5C22.222 17.8694 17.8692 22.2222 12.4998 22.2222C7.13038 22.2222 2.77759 17.8694 2.77759 12.5ZM12.4998 4.72222C8.20426 4.72222 4.72203 8.20445 4.72203 12.5C4.72203 16.7955 8.20426 20.2778 12.4998 20.2778C16.7954 20.2778 20.2776 16.7955 20.2776 12.5C20.2776 8.20445 16.7954 4.72222 12.4998 4.72222Z" fill="white"/>
<path fill-rule="evenodd" clip-rule="evenodd" d="M13.472 7.63888C13.472 7.10194 13.0368 6.66666 12.4998 6.66666C11.9629 6.66666 11.5276 7.10194 11.5276 7.63888V11.5278H7.6387C7.10176 11.5278 6.66648 11.963 6.66648 12.5C6.66648 13.0369 7.10176 13.4722 7.6387 13.4722H11.5276V17.3611C11.5276 17.898 11.9629 18.3333 12.4998 18.3333C13.0368 18.3333 13.472 17.898 13.472 17.3611V13.4722H17.3609C17.8979 13.4722 18.3331 13.0369 18.3331 12.5C18.3331 11.963 17.8979 11.5278 17.3609 11.5278H13.472V7.63888Z" fill="white"/>
</svg>
