<svg width="0" height="0" class="hidden">
  <symbol xmlns="http://www.w3.org/2000/svg" viewBox="0 2 38 33" id="send">
    <path d="M32.611 5.49299L4.63116 14.677C2.72165 15.3299 2.7327 16.2366 4.28082 16.6409L15.5327 19.306L28.085 9.62224C28.8709 9.21523 29.589 9.43418 28.9988 9.88015L16.5694 19.9776C19.9999 22.8976 23.3418 25.1366 27.2376 27.586C28.5758 28.2133 29.5369 27.8909 29.8699 26.5315L34.6342 7.41926C35.1218 5.75493 33.8877 5.00135 32.611 5.49299Z"></path>
    <line x1="1" y1="-1" x2="9.86389" y2="-1" transform="matrix(-0.750929 0.660383 -0.771797 -0.635869 12.7588 23.4424)" stroke="#0057B8" stroke-width="2" stroke-linecap="round"></line>
    <line x1="1" y1="-1" x2="9.65769" y2="-1" transform="matrix(-0.740362 0.672208 -0.781631 -0.62374 11.0469 19.3057)" stroke="#0057B8" stroke-width="2" stroke-linecap="round"></line>
    <line x1="1" y1="-1" x2="8.84403" y2="-1" transform="matrix(-0.761498 0.648167 -0.76148 -0.648189 19.332 23.6719)" stroke="#0057B8" stroke-width="2" stroke-linecap="round"></line>
  </symbol>
</svg>