<svg width="29" height="48" viewBox="0 0 29 48" fill="none" xmlns="http://www.w3.org/2000/svg">
<path fill-rule="evenodd" clip-rule="evenodd" d="M14.5231 0.343029C12.8505 2.2633 12.8275 4.66817 12.8275 5.11122C12.8275 7.65863 13.1483 12.1838 13.1483 17.1362C13.1483 24.8893 9.55889 30.047 9.55889 30.047C9.55889 30.047 9.49778 30.1738 8.76461 30.1738C8.03132 30.1738 6.44289 29.5567 6.44289 27.7372C6.44289 25.9175 8.38266 25.4113 8.74924 25.4113C9.11582 25.4113 9.29917 25.4745 9.29917 25.4745C9.29917 25.4745 8.93259 22.1519 8.10768 14.6521C6.50387 6.63025 0.684326 3.82971 0.684326 3.82971V38.5279H8.44378C8.44378 38.5279 9.00897 43.4169 13.1484 46.534C13.1484 46.534 14.462 47.7048 14.5231 48.0845C14.5842 47.7047 15.8978 46.534 15.8978 46.534C20.037 43.417 20.6022 38.5279 20.6022 38.5279H28.3616V3.82971C28.3616 3.82971 22.542 6.63023 20.9383 14.6522C20.1136 22.1519 19.747 25.4744 19.747 25.4744C19.747 25.4744 19.9302 25.4113 20.2968 25.4113C20.6634 25.4113 22.603 25.9175 22.603 27.7372C22.603 29.5567 21.0147 30.1739 20.2815 30.1739C19.5483 30.1739 19.4873 30.0471 19.4873 30.0471C19.4873 30.0471 15.8978 24.8892 15.8978 17.1363C15.8978 12.1839 16.2185 7.65871 16.2185 5.11131C16.2185 4.66827 16.1957 2.26327 14.5231 0.343117V0.342987L14.5231 0.343029ZM13.3316 38.528H10.9487C10.9487 38.528 11.2084 41.3917 13.3316 43.4327C13.3316 42.1355 13.3316 38.528 13.3316 38.528ZM15.7144 38.528H18.0973C18.0973 38.528 17.8375 41.3917 15.7144 43.4327C15.7144 42.1355 15.7144 38.528 15.7144 38.528ZM26.0092 8.94035C26.0092 8.94035 23.9015 11.6616 23.2904 14.8578C22.9544 17.8008 22.2825 23.5286 22.2825 23.5286C22.2825 23.5286 24.2985 24.4145 24.7569 26.5979C25.1539 26.5979 26.0093 26.5979 26.0093 26.5979L26.0092 8.94034L26.0092 8.94035ZM20.3884 32.6104C20.8772 32.6104 24.0999 32.1199 24.7569 29.0029H26.0092V36.1861H20.8772C20.8772 36.1861 20.8772 34.2242 20.3884 32.6104L20.3884 32.6104ZM18.4791 36.1545H15.6839C15.6839 36.1545 15.7742 33.5942 18.1125 33.2116C18.311 33.8762 18.4791 34.6831 18.4791 36.1545H18.4791ZM14.5231 24.3829C14.5231 24.3829 13.4997 28.3067 11.8653 30.8699C12.4762 31.2812 14.5231 32.721 14.5231 32.721C14.5231 32.721 16.5698 31.2812 17.1808 30.8699C15.5463 28.3067 14.5231 24.3829 14.5231 24.3829ZM10.5669 36.1545H13.3621C13.3621 36.1545 13.272 33.5941 10.9335 33.2116C10.735 33.8762 10.5669 34.6831 10.5669 36.1545H10.5669ZM8.65764 32.6104C8.16883 32.6104 4.94596 32.1199 4.28903 29.0029H3.03668V36.1861H8.16883C8.16883 36.1861 8.16883 34.2242 8.65765 32.6104L8.65764 32.6104ZM3.03669 8.94022C3.03669 8.94022 5.14444 11.6616 5.7555 14.8578C6.09158 17.8008 6.76363 23.5286 6.76363 23.5286C6.76363 23.5286 4.74737 24.4144 4.28905 26.5977C3.89197 26.5977 3.0367 26.5977 3.0367 26.5977V8.94022H3.03669Z" fill="#FFD500"/>
</svg>
