<svg width="24" height="25" viewBox="0 0 24 25" fill="none" xmlns="http://www.w3.org/2000/svg">
<path fill-rule="evenodd" clip-rule="evenodd" d="M0.507568 12.7149C0.507568 6.04147 5.54437 0.631577 11.7576 0.631577C17.9708 0.631577 23.0076 6.04147 23.0076 12.7149C23.0076 19.3883 17.9708 24.7982 11.7576 24.7982C5.54437 24.7982 0.507568 19.3883 0.507568 12.7149ZM11.7576 3.04824C6.78701 3.04824 2.75757 7.37616 2.75757 12.7149C2.75757 18.0537 6.78701 22.3816 11.7576 22.3816C16.7281 22.3816 20.7576 18.0537 20.7576 12.7149C20.7576 7.37616 16.7281 3.04824 11.7576 3.04824Z" fill="white"/>
<path fill-rule="evenodd" clip-rule="evenodd" d="M12.8826 6.67324C12.8826 6.0059 12.3789 5.46491 11.7576 5.46491C11.1362 5.46491 10.6326 6.0059 10.6326 6.67324V11.5066H6.13257C5.51125 11.5066 5.00757 12.0476 5.00757 12.7149C5.00757 13.3823 5.51125 13.9232 6.13257 13.9232H10.6326V18.7566C10.6326 19.4239 11.1362 19.9649 11.7576 19.9649C12.3789 19.9649 12.8826 19.4239 12.8826 18.7566V13.9232H17.3826C18.0039 13.9232 18.5076 13.3823 18.5076 12.7149C18.5076 12.0476 18.0039 11.5066 17.3826 11.5066H12.8826V6.67324Z" fill="white"/>
</svg>
