
<svg width="24" height="24" viewBox="0 0 24 24" fill="none" xmlns="http://www.w3.org/2000/svg">
<g opacity="0.4">
<path fill-rule="evenodd" clip-rule="evenodd" d="M16.8952 15.4761C19.3519 12.3209 19.13 7.75613 16.2295 4.85561C13.0887 1.7148 7.99641 1.7148 4.85561 4.85561C1.7148 7.99641 1.7148 13.0887 4.85561 16.2295C7.75613 19.13 12.3209 19.3519 15.4761 16.8952C15.4897 16.9106 15.5039 16.9256 15.5186 16.9403L19.7838 21.2056C20.1764 21.5982 20.8129 21.5982 21.2056 21.2056C21.5982 20.8129 21.5982 20.1764 21.2056 19.7838L16.9403 15.5186C16.9256 15.5039 16.9106 15.4897 16.8952 15.4761ZM14.8077 6.27734C17.1634 8.63295 17.1634 12.4521 14.8077 14.8077C12.4521 17.1634 8.63295 17.1634 6.27734 14.8077C3.92173 12.4521 3.92173 8.63295 6.27734 6.27734C8.63295 3.92173 12.4521 3.92173 14.8077 6.27734Z" fill="white"/>
</g>
</svg>
