<svg width="25" height="25" viewBox="0 0 25 25" fill="none" xmlns="http://www.w3.org/2000/svg">
<path fill-rule="evenodd" clip-rule="evenodd" d="M18.289 13.7606C20.3578 11.1036 20.171 7.25954 17.7284 4.817C15.0835 2.17211 10.7953 2.17211 8.15042 4.817C5.50553 7.46189 5.50553 11.7501 8.15042 14.395C10.593 16.8375 14.437 17.0244 17.094 14.9556C17.1055 14.9685 17.1174 14.9812 17.1298 14.9936L20.7215 18.5854C21.0522 18.916 21.5882 18.916 21.9188 18.5854C22.2494 18.2548 22.2494 17.7187 21.9188 17.3881L18.327 13.7964C18.3146 13.784 18.302 13.772 18.289 13.7606ZM16.5312 6.01425C18.5148 7.99791 18.5148 11.2141 16.5312 13.1977C14.5475 15.1814 11.3313 15.1814 9.34767 13.1977C7.364 11.2141 7.364 7.99791 9.34767 6.01425C11.3313 4.03058 14.5475 4.03058 16.5312 6.01425Z" fill="white"/>
</svg>
