<svg width="19" height="19" viewBox="0 0 19 19" fill="none" xmlns="http://www.w3.org/2000/svg">
<g clip-path="url(#clip0_183_470)">
<path d="M18.099 7.2187L15.1897 4.30951C15.0483 4.1729 14.8588 4.0973 14.6622 4.09901C14.4655 4.10072 14.2774 4.1796 14.1384 4.31865C13.9993 4.4577 13.9204 4.64581 13.9187 4.84245C13.917 5.03909 13.9926 5.22854 14.1292 5.36999L17.0385 8.27917C17.1249 8.36732 17.2005 8.46552 17.2635 8.57167C17.2522 8.57167 17.2432 8.56567 17.232 8.56567L5.46899 8.58967C5.27008 8.58967 5.07932 8.66868 4.93866 8.80933C4.79801 8.94998 4.71899 9.14074 4.71899 9.33965C4.71899 9.53856 4.79801 9.72932 4.93866 9.86997C5.07932 10.0106 5.27008 10.0896 5.46899 10.0896L17.2275 10.0656C17.2485 10.0656 17.2657 10.0551 17.286 10.0536C17.2195 10.1805 17.1351 10.2972 17.0355 10.4001L14.1262 13.3093C14.0546 13.3785 13.9975 13.4613 13.9582 13.5528C13.9189 13.6443 13.8982 13.7427 13.8973 13.8422C13.8964 13.9418 13.9154 14.0406 13.9531 14.1328C13.9908 14.2249 14.0465 14.3087 14.1169 14.3791C14.1874 14.4495 14.2711 14.5052 14.3633 14.5429C14.4554 14.5806 14.5542 14.5996 14.6538 14.5987C14.7534 14.5979 14.8518 14.5772 14.9433 14.5379C15.0348 14.4986 15.1176 14.4414 15.1867 14.3698L18.096 11.4606C18.6584 10.898 18.9743 10.1351 18.9743 9.33965C18.9743 8.54418 18.6584 7.78127 18.096 7.2187H18.099Z" fill="#0057B8" fill-opacity="0.5"/>
<path d="M6.22729 16.8395H4.72729C4.13056 16.8395 3.55826 16.6024 3.1363 16.1805C2.71435 15.7585 2.47729 15.1862 2.47729 14.5895V4.08976C2.47729 3.49304 2.71435 2.92075 3.1363 2.4988C3.55826 2.07686 4.13056 1.83981 4.72729 1.83981H6.22729C6.42621 1.83981 6.61697 1.76079 6.75762 1.62014C6.89828 1.4795 6.97729 1.28873 6.97729 1.08983C6.97729 0.890919 6.89828 0.700158 6.75762 0.559509C6.61697 0.41886 6.42621 0.339844 6.22729 0.339844H4.72729C3.7331 0.341035 2.77996 0.736496 2.07696 1.43948C1.37396 2.14247 0.978486 3.09559 0.977295 4.08976L0.977295 14.5895C0.978486 15.5837 1.37396 16.5368 2.07696 17.2398C2.77996 17.9428 3.7331 18.3382 4.72729 18.3394H6.22729C6.42621 18.3394 6.61697 18.2604 6.75762 18.1198C6.89828 17.9791 6.97729 17.7884 6.97729 17.5895C6.97729 17.3905 6.89828 17.1998 6.75762 17.0591C6.61697 16.9185 6.42621 16.8395 6.22729 16.8395Z" fill="#0057B8" fill-opacity="0.5"/>
</g>
<defs>
<clipPath id="clip0_183_470">
<rect width="18" height="17.9996" fill="white" transform="translate(0.977295 0.339844)"/>
</clipPath>
</defs>
</svg>
