<svg width="18" height="18" viewBox="0 0 18 18" fill="none" xmlns="http://www.w3.org/2000/svg">
<g clip-path="url(#clip0_594_192)">
<path d="M9 8.90028C9.89002 8.90028 10.76 8.63928 11.5001 8.15029C12.2401 7.6613 12.8169 6.96628 13.1575 6.15312C13.4981 5.33996 13.5872 4.44518 13.4135 3.58193C13.2399 2.71869 12.8113 1.92574 12.182 1.30338C11.5526 0.681012 10.7508 0.257175 9.87791 0.0854648C9.00499 -0.0862456 8.10019 0.00188242 7.27792 0.338704C6.45566 0.675527 5.75285 1.24591 5.25839 1.97774C4.76392 2.70956 4.5 3.56996 4.5 4.45012C4.50119 5.63001 4.97568 6.76124 5.81934 7.59555C6.66299 8.42986 7.80689 8.8991 9 8.90028ZM9 1.48334C9.59334 1.48334 10.1734 1.65734 10.6667 1.98333C11.1601 2.30933 11.5446 2.77267 11.7716 3.31478C11.9987 3.85689 12.0581 4.45341 11.9424 5.0289C11.8266 5.6044 11.5409 6.13303 11.1213 6.54794C10.7018 6.96285 10.1672 7.24541 9.58527 7.35988C9.00333 7.47436 8.40013 7.41561 7.85195 7.19106C7.30377 6.96651 6.83524 6.58625 6.50559 6.09837C6.17595 5.61048 6 5.03689 6 4.45012C6 3.66328 6.31607 2.90867 6.87868 2.35229C7.44129 1.79591 8.20435 1.48334 9 1.48334Z" fill="white"/>
<path d="M9 10.3837C7.2104 10.3857 5.49466 11.0896 4.22922 12.341C2.96378 13.5924 2.25199 15.2892 2.25 17.059C2.25 17.2557 2.32902 17.4443 2.46967 17.5834C2.61032 17.7225 2.80109 17.8006 3 17.8006C3.19891 17.8006 3.38968 17.7225 3.53033 17.5834C3.67098 17.4443 3.75 17.2557 3.75 17.059C3.75 15.682 4.30312 14.3614 5.28769 13.3878C6.27225 12.4141 7.60761 11.8671 9 11.8671C10.3924 11.8671 11.7277 12.4141 12.7123 13.3878C13.6969 14.3614 14.25 15.682 14.25 17.059C14.25 17.2557 14.329 17.4443 14.4697 17.5834C14.6103 17.7225 14.8011 17.8006 15 17.8006C15.1989 17.8006 15.3897 17.7225 15.5303 17.5834C15.671 17.4443 15.75 17.2557 15.75 17.059C15.748 15.2892 15.0362 13.5924 13.7708 12.341C12.5053 11.0896 10.7896 10.3857 9 10.3837Z" fill="white"/>
</g>
<defs>
<clipPath id="clip0_594_192">
<rect width="18" height="17.8006" fill="white"/>
</clipPath>
</defs>
</svg>
